<?xml version="1.0" standalone="no"?>
<!DOCTYPE svg PUBLIC "-//W3C//DTD SVG 20010904//EN"
 "http://www.w3.org/TR/2001/REC-SVG-20010904/DTD/svg10.dtd">
<svg version="1.0" xmlns="http://www.w3.org/2000/svg"
 width="500.000000pt" height="500.000000pt" viewBox="0 0 500.000000 500.000000"
 preserveAspectRatio="xMidYMid meet">
<metadata>
Created by potrace 1.14, written by Peter Selinger 2001-2017
</metadata>
<g transform="translate(0.000000,500.000000) scale(0.100000,-0.100000)"
fill="#000000" stroke="none">
<path d="M1372 4119 c-298 -38 -555 -197 -656 -403 -49 -102 -61 -163 -59
-296 3 -191 57 -351 170 -498 119 -156 260 -251 680 -459 360 -178 485 -256
594 -370 154 -161 210 -362 165 -595 -48 -249 -187 -431 -411 -540 -302 -145
-664 -50 -860 227 -107 151 -152 288 -183 562 l-7 63 -159 -201 -158 -200 22
-59 c54 -144 196 -305 344 -389 179 -102 371 -145 646 -145 204 0 292 12 449
64 203 66 388 192 495 339 128 174 180 413 142 656 -45 291 -176 487 -443 662
-75 49 -164 94 -596 301 -284 137 -436 262 -516 423 -69 141 -89 308 -51 431
69 225 336 374 634 355 211 -14 373 -103 473 -259 32 -51 83 -192 83 -230 0
-16 3 -28 8 -27 4 0 66 76 138 167 86 109 128 170 120 174 -6 4 -23 8 -37 8
-46 0 -154 38 -297 105 -76 35 -173 75 -215 90 -145 48 -349 66 -515 44z"/>
<path d="M3155 4103 c-99 -22 -140 -26 -397 -31 l-288 -7 29 -44 c54 -81 101
-256 120 -450 14 -137 15 -2050 1 -2192 -20 -201 -69 -383 -127 -469 l-23 -35
292 -6 c247 -5 310 -10 398 -28 145 -30 425 -39 565 -17 440 67 713 293 786
651 28 132 22 364 -11 495 -27 105 -85 232 -144 314 -77 108 -210 215 -332
268 -30 13 -54 26 -54 29 0 4 19 19 41 34 244 161 346 479 273 844 -55 272
-225 477 -484 584 -207 85 -441 107 -645 60z m395 -82 c216 -67 354 -255 421
-573 29 -137 32 -378 6 -483 -26 -100 -78 -201 -139 -269 l-53 -58 -99 12
c-352 45 -622 -100 -732 -393 l-24 -62 4 715 c3 765 4 774 55 912 42 110 121
184 230 215 66 19 248 10 331 -16z m145 -1491 c316 -98 490 -359 525 -787 24
-293 -40 -522 -186 -667 -69 -70 -182 -134 -284 -161 -90 -25 -234 -29 -320
-11 -268 57 -445 257 -491 556 -15 97 -6 402 16 530 20 117 66 256 108 330 64
113 171 196 292 227 74 19 252 10 340 -17z"/>
</g>
</svg>
